<svg width="64" height="64" viewBox="0 0 64 64" fill="none" xmlns="http://www.w3.org/2000/svg">
<path d="M23.8534 58.6667C21.6879 58.682 19.5711 58.0244 17.7955 56.7848C16.0199 55.5451 14.6731 53.7846 13.9412 51.7465C13.2093 49.7083 13.1285 47.4932 13.7099 45.4072C14.2913 43.3211 15.5062 41.4671 17.1868 40.1014C15.9794 39.1242 15.0056 37.8895 14.3367 36.4876C13.6678 35.0857 13.3207 33.552 13.3207 31.9987C13.3207 30.4454 13.6678 28.9117 14.3367 27.5098C15.0056 26.1079 15.9794 24.8732 17.1868 23.896C15.5041 22.5315 14.2872 20.6776 13.7046 18.5911C13.1219 16.5045 13.2023 14.2884 13.9345 12.2495C14.6668 10.2106 16.0147 8.44978 17.7918 7.21069C19.5688 5.97161 21.6871 5.31556 23.8534 5.33336H40.1468C42.3131 5.31556 44.4314 5.97161 46.2084 7.21069C47.9855 8.44978 49.3334 10.2106 50.0657 12.2495C50.7979 14.2884 50.8783 16.5045 50.2956 18.5911C49.713 20.6776 48.4961 22.5315 46.8134 23.896C48.4956 25.261 49.7119 27.1151 50.2943 29.2016C50.8767 31.2882 50.7962 33.5041 50.0641 35.543C49.332 37.5818 47.9843 39.3427 46.2076 40.5821C44.4309 41.8216 42.313 42.4783 40.1468 42.4614C38.0961 42.4639 36.0894 41.8669 34.3734 40.744V48.2107C34.3614 50.9912 33.2472 53.6534 31.2751 55.6136C29.3029 57.5737 26.634 58.6717 23.8534 58.6667ZM23.7948 42.464C22.6633 42.4819 21.5623 42.8338 20.6301 43.4754C19.698 44.117 18.9762 45.0198 18.5555 46.0703C18.1349 47.1209 18.034 48.2723 18.2657 49.38C18.4974 50.4877 19.0512 51.5022 19.8576 52.2961C20.6641 53.09 21.6871 53.6278 22.7983 53.8421C23.9094 54.0564 25.0592 53.9375 26.103 53.5004C27.1468 53.0633 28.0382 52.3275 28.6651 51.3854C29.2921 50.4434 29.6266 49.337 29.6268 48.2054V42.464H23.7921H23.7948ZM40.1494 26.2587C39.0152 26.2645 37.908 26.6061 36.9677 27.2405C36.0275 27.8749 35.2961 28.7736 34.8661 29.8232C34.436 30.8728 34.3265 32.0262 34.5513 33.138C34.7762 34.2498 35.3253 35.27 36.1294 36.07C36.9335 36.87 37.9565 37.4139 39.0694 37.6331C40.1823 37.8523 41.3352 37.7369 42.3826 37.3015C43.43 36.8661 44.3249 36.1302 44.9545 35.1867C45.5841 34.2432 45.9201 33.1343 45.9201 32C45.9144 30.4735 45.3034 29.0116 44.221 27.9352C43.1385 26.8588 41.6733 26.2559 40.1468 26.2587H40.1494ZM23.8561 26.2587C22.3334 26.2506 20.8698 26.8477 19.7874 27.9186C18.7049 28.9896 18.0922 30.4467 18.0841 31.9694C18.076 33.4921 18.6731 34.9556 19.744 36.0381C20.815 37.1205 22.2721 37.7332 23.7948 37.7414H29.6268V26.2587H23.8561ZM34.3734 10.0534V21.5387H40.1441C41.6294 21.5456 43.0598 20.9772 44.1351 19.9525C45.2105 18.9279 45.8473 17.5266 45.9121 16.0427V17.2027V15.7947C45.9057 14.2698 45.2955 12.8095 44.215 11.7335C43.1345 10.6575 41.6717 10.0533 40.1468 10.0534H34.3734ZM23.8508 10.0534C22.3281 10.0534 20.8677 10.6582 19.791 11.735C18.7143 12.8117 18.1094 14.272 18.1094 15.7947C18.1094 17.3174 18.7143 18.7777 19.791 19.8544C20.8677 20.9311 22.3281 21.536 23.8508 21.536H29.6268V10.0534H23.8508Z" fill="white"/>
</svg>
