<svg width="64" height="64" viewBox="0 0 64 64" fill="none" xmlns="http://www.w3.org/2000/svg">
<path d="M43.749 15.136C43.437 15.136 43.229 15.178 43.019 15.23V15.262H43.051C43.197 15.532 43.437 15.742 43.623 15.992C43.769 16.274 43.893 16.564 44.029 16.846L44.071 16.804C44.321 16.626 44.447 16.346 44.447 15.918C44.343 15.792 44.321 15.658 44.229 15.542C44.125 15.364 43.895 15.272 43.749 15.136ZM15.385 50.322H12.917C12.8422 46.3937 12.6027 42.4702 12.199 38.562H12.179L8.41898 50.322H6.53298L2.80298 38.562H2.77098C2.48111 42.476 2.3077 46.3977 2.25098 50.322H0.000976562C0.122809 45.3903 0.48792 40.4677 1.09498 35.572H4.15698L7.71898 46.406H7.73898L11.333 35.572H14.249C14.895 40.948 15.281 45.864 15.395 50.322H15.385ZM26.093 39.438C25.093 44.896 23.759 48.866 22.125 51.334C20.833 53.24 19.427 54.198 17.895 54.198C17.489 54.198 16.989 54.072 16.385 53.822V52.51C16.687 52.552 17.031 52.582 17.417 52.582C18.135 52.582 18.709 52.374 19.147 51.988C19.667 51.508 19.929 50.968 19.929 50.374C19.929 49.958 19.731 49.124 19.315 47.854L16.617 39.438H19.045L20.983 45.73C21.421 47.168 21.609 48.158 21.525 48.73C22.597 45.896 23.337 42.792 23.755 39.438H26.093ZM58.967 50.322H51.947V35.572H54.311V48.51H58.967V50.322ZM50.113 50.678L47.405 49.344C47.645 49.146 47.873 48.928 48.083 48.678C49.239 47.334 49.813 45.324 49.813 42.678C49.813 37.792 47.897 35.356 44.063 35.356C42.187 35.356 40.719 35.97 39.667 37.21C38.521 38.564 37.937 40.564 37.937 43.2C37.937 45.794 38.447 47.69 39.469 48.908C40.407 49.992 41.813 50.544 43.699 50.544C44.397 50.544 45.043 50.46 45.627 50.284L49.159 52.346L50.127 50.68L50.113 50.678ZM41.333 47.364C40.729 46.406 40.437 44.864 40.437 42.738C40.437 39.02 41.563 37.166 43.823 37.166C45.001 37.166 45.875 37.614 46.427 38.5C47.021 39.468 47.323 40.99 47.323 43.094C47.323 46.834 46.187 48.72 43.937 48.72C42.749 48.72 41.885 48.272 41.323 47.386L41.333 47.364ZM36.915 46.24C36.915 47.49 36.457 48.522 35.529 49.312C34.613 50.114 33.393 50.52 31.841 50.52C30.393 50.52 29.007 50.062 27.643 49.144L28.279 47.874C29.445 48.458 30.497 48.75 31.457 48.75C32.343 48.75 33.041 48.552 33.541 48.166C34.041 47.77 34.343 47.218 34.343 46.52C34.343 45.644 33.729 44.894 32.613 44.27C31.581 43.698 29.509 42.52 29.509 42.52C28.383 41.698 27.831 40.822 27.831 39.374C27.831 38.176 28.247 37.218 29.081 36.488C29.925 35.738 30.997 35.374 32.331 35.374C33.6582 35.3625 34.9592 35.743 36.071 36.468L35.499 37.738C34.6053 37.3445 33.6414 37.1356 32.665 37.124C31.905 37.124 31.321 37.312 30.915 37.676C30.509 38.04 30.259 38.498 30.259 39.072C30.259 39.948 30.885 40.698 32.029 41.342C33.081 41.914 35.195 43.124 35.195 43.124C36.351 43.936 36.925 44.812 36.925 46.238L36.915 46.24ZM61.927 30.626C60.499 30.594 59.395 30.74 58.469 31.136C58.209 31.24 57.781 31.24 57.739 31.574C57.885 31.72 57.905 31.95 58.031 32.146C58.249 32.5 58.615 32.98 58.959 33.23C59.335 33.522 59.709 33.814 60.095 34.064C60.793 34.492 61.575 34.742 62.261 35.168C62.647 35.418 63.043 35.74 63.427 36.002C63.625 36.138 63.749 36.378 63.999 36.46V36.408C63.873 36.252 63.843 36.022 63.717 35.836C63.539 35.658 63.363 35.502 63.185 35.326C62.6634 34.6335 62.038 34.0257 61.331 33.524C60.759 33.138 59.509 32.596 59.279 31.94L59.247 31.898C59.633 31.866 60.091 31.72 60.465 31.616C61.069 31.46 61.631 31.49 62.257 31.334C62.5441 31.2595 62.8289 31.1761 63.111 31.084V30.928C62.789 30.606 62.549 30.168 62.215 29.866C61.2946 29.0607 60.3122 28.3291 59.277 27.678C58.715 27.314 58.007 27.084 57.413 26.782C57.205 26.678 56.841 26.626 56.725 26.448C56.403 26.052 56.215 25.542 55.985 25.072C55.4618 24.0552 54.9755 23.0199 54.527 21.968C54.205 21.27 54.017 20.582 53.621 19.936C51.787 16.904 49.787 15.072 46.725 13.27C46.069 12.894 45.277 12.738 44.443 12.54C43.995 12.52 43.557 12.488 43.109 12.468C42.817 12.342 42.537 12.01 42.287 11.842C41.267 11.196 38.641 9.80999 37.901 11.644C37.421 12.81 38.609 13.946 39.027 14.53C39.329 14.946 39.715 15.406 39.933 15.864C40.059 16.176 40.089 16.5 40.215 16.822C40.497 17.604 40.767 18.478 41.143 19.208C41.341 19.584 41.549 19.978 41.799 20.312C41.945 20.51 42.195 20.594 42.247 20.916C41.997 21.28 41.977 21.812 41.841 22.25C41.195 24.27 41.445 26.76 42.351 28.25C42.643 28.698 43.319 29.678 44.227 29.302C45.029 28.98 44.853 27.968 45.081 27.072C45.133 26.854 45.101 26.718 45.207 26.572V26.614C45.467 27.114 45.717 27.594 45.947 28.094C46.489 28.97 47.457 29.876 48.259 30.48C48.687 30.802 49.019 31.356 49.551 31.552V31.5H49.509C49.395 31.344 49.249 31.27 49.103 31.146C48.7652 30.8114 48.4518 30.4532 48.165 30.074C47.425 29.074 46.759 27.97 46.175 26.834C45.8936 26.2727 45.6367 25.6995 45.405 25.116C45.301 24.908 45.301 24.584 45.123 24.48C44.853 24.866 44.457 25.198 44.269 25.688C43.925 26.448 43.893 27.396 43.759 28.376C43.697 28.396 43.727 28.376 43.697 28.418C43.125 28.272 42.927 27.688 42.717 27.188C42.175 25.918 42.091 23.886 42.551 22.428C42.677 22.052 43.207 20.876 42.999 20.522C42.885 20.178 42.531 19.98 42.343 19.71C42.103 19.376 41.863 18.95 41.697 18.574C41.269 17.574 41.061 16.47 40.593 15.47C40.385 15.012 40.009 14.532 39.707 14.106C39.363 13.626 38.989 13.284 38.727 12.72C38.633 12.522 38.509 12.2 38.655 11.99C38.687 11.844 38.759 11.792 38.905 11.75C39.135 11.552 39.801 11.802 40.031 11.916C40.687 12.176 41.239 12.426 41.791 12.802C42.041 12.98 42.311 13.312 42.635 13.406H43.011C43.583 13.532 44.219 13.438 44.751 13.604C45.699 13.906 46.553 14.344 47.323 14.822C49.6777 16.3336 51.5927 18.4389 52.875 20.926C53.093 21.332 53.187 21.708 53.385 22.134C53.749 23.02 54.219 23.904 54.593 24.748C54.967 25.592 55.323 26.446 55.863 27.144C56.133 27.52 57.197 27.716 57.685 27.904C58.039 28.07 58.591 28.216 58.903 28.404C59.517 28.78 60.121 29.206 60.695 29.622C60.987 29.82 61.873 30.268 61.925 30.622L61.927 30.626Z" fill="white"/>
</svg>
