<svg width="64" height="64" viewBox="0 0 64 64" fill="none" xmlns="http://www.w3.org/2000/svg">
<path d="M10.6667 16V42.6666H24V32C24 30.5855 24.5619 29.2289 25.5621 28.2287C26.5623 27.2285 27.9188 26.6666 29.3333 26.6666H42.6667C44.0812 26.6666 45.4377 27.2285 46.4379 28.2287C47.4381 29.2289 48 30.5855 48 32V42.6666H53.3333V16H10.6667ZM0 53.3333V48H10.6667C9.25218 48 7.89562 47.4381 6.89543 46.4379C5.89524 45.4377 5.33333 44.0811 5.33333 42.6666V16C5.33333 14.5855 5.89524 13.2289 6.89543 12.2287C7.89562 11.2285 9.25218 10.6666 10.6667 10.6666H53.3333C54.7478 10.6666 56.1044 11.2285 57.1046 12.2287C58.1048 13.2289 58.6667 14.5855 58.6667 16V42.6666C58.6667 44.0811 58.1048 45.4377 57.1046 46.4379C56.1044 47.4381 54.7478 48 53.3333 48H64V53.3333H48C48 54.7478 47.4381 56.1043 46.4379 57.1045C45.4377 58.1047 44.0812 58.6666 42.6667 58.6666H29.3333C27.9188 58.6666 26.5623 58.1047 25.5621 57.1045C24.5619 56.1043 24 54.7478 24 53.3333H0ZM30.6667 53.3333C30.313 53.3333 29.9739 53.4738 29.7239 53.7238C29.4738 53.9739 29.3333 54.313 29.3333 54.6666C29.3333 55.0202 29.4738 55.3594 29.7239 55.6094C29.9739 55.8595 30.313 56 30.6667 56C31.0203 56 31.3594 55.8595 31.6095 55.6094C31.8595 55.3594 32 55.0202 32 54.6666C32 54.313 31.8595 53.9739 31.6095 53.7238C31.3594 53.4738 31.0203 53.3333 30.6667 53.3333ZM41.3333 53.3333C40.9797 53.3333 40.6406 53.4738 40.3905 53.7238C40.1405 53.9739 40 54.313 40 54.6666C40 55.0202 40.1405 55.3594 40.3905 55.6094C40.6406 55.8595 40.9797 56 41.3333 56C41.687 56 42.0261 55.8595 42.2761 55.6094C42.5262 55.3594 42.6667 55.0202 42.6667 54.6666C42.6667 54.313 42.5262 53.9739 42.2761 53.7238C42.0261 53.4738 41.687 53.3333 41.3333 53.3333ZM34.6667 53.3333V56H37.3333V53.3333H34.6667ZM29.3333 32V50.6666H42.6667V32H29.3333Z" fill="white"/>
</svg>
