<svg width="64" height="64" viewBox="0 0 64 64" fill="none" xmlns="http://www.w3.org/2000/svg">
<path fill-rule="evenodd" clip-rule="evenodd" d="M13.2933 5.33337C9.64 5.33337 6.93867 8.53071 7.06133 11.9947C7.176 15.328 7.02667 19.64 5.94133 23.1574C4.848 26.6827 3.008 28.9174 0 29.2054V32.4454C3.008 32.7307 4.85067 34.9654 5.93867 38.4934C7.02667 42.0107 7.176 46.3227 7.05867 49.6534C6.93867 53.12 9.64 56.3174 13.2933 56.3174H50.712C54.3653 56.3174 57.0667 53.12 56.944 49.6534C56.8293 46.3227 56.9787 42.0107 58.064 38.4934C59.1547 34.9654 60.992 32.7334 64 32.4454V29.2054C60.992 28.9174 59.1547 26.6827 58.064 23.1574C56.9787 19.6374 56.8293 15.3254 56.944 11.9947C57.0667 8.52804 54.3627 5.33337 50.712 5.33337H13.2933ZM43.3867 36.7174C43.3867 41.4907 39.8267 44.384 33.92 44.384H23.864C23.5762 44.384 23.3001 44.2697 23.0966 44.0662C22.893 43.8626 22.7787 43.5866 22.7787 43.2987V18.3494C22.7794 18.062 22.894 17.7866 23.0975 17.5837C23.301 17.3807 23.5766 17.2667 23.864 17.2667H33.864C38.7893 17.2667 42.024 19.9334 42.024 24.032C42.024 26.9067 39.848 29.48 37.0773 29.9334V30.0827C40.8507 30.496 43.3893 33.1094 43.3893 36.7174H43.3867ZM32.8267 20.704H27.0933V28.8054H31.9227C35.656 28.8054 37.7147 27.3014 37.7147 24.6134C37.7147 22.096 35.944 20.704 32.8267 20.704ZM27.0933 32.0187V40.944H33.04C36.9253 40.944 38.9867 39.384 38.9867 36.4534C38.9867 33.52 36.8693 32.0187 32.7893 32.0187H27.0933Z" fill="white"/>
</svg>
