<svg width="64" height="64" viewBox="0 0 64 64" fill="none" xmlns="http://www.w3.org/2000/svg">
<path d="M57.6533 29.6214L34.3706 6.34403C33.7249 5.70129 32.851 5.34045 31.9399 5.34045C31.0289 5.34045 30.1549 5.70129 29.5093 6.34403L24.6853 11.1734L30.8159 17.3067C31.5392 17.0623 32.3166 17.0255 33.0598 17.2004C33.803 17.3754 34.4823 17.7551 35.0206 18.2965C35.559 18.8379 35.9348 19.5193 36.1056 20.2635C36.2763 21.0076 36.2351 21.7848 35.9866 22.5067L41.8906 28.4187C42.7647 28.112 43.7172 28.1119 44.5913 28.4183C45.4655 28.7248 46.2094 29.3197 46.7006 30.1051C47.1918 30.8905 47.4011 31.8196 47.2942 32.7398C47.1872 33.6599 46.7702 34.5163 46.1119 35.168C44.5146 36.768 41.9359 36.768 40.3359 35.168C39.7676 34.5991 39.3793 33.8754 39.2195 33.0873C39.0597 32.2992 39.1354 31.4814 39.4373 30.736L33.9066 25.2347V39.7334C34.2959 39.9227 34.6693 40.184 34.9919 40.5067C35.7544 41.2745 36.1822 42.3127 36.1822 43.3947C36.1822 44.4767 35.7544 45.5149 34.9919 46.2827C34.6115 46.6638 34.1596 46.9661 33.6623 47.1723C33.1649 47.3786 32.6317 47.4847 32.0933 47.4847C31.5548 47.4847 31.0216 47.3786 30.5242 47.1723C30.0269 46.9661 29.575 46.6638 29.1946 46.2827C28.815 45.9042 28.5138 45.4545 28.3083 44.9594C28.1028 44.4642 27.997 43.9334 27.997 43.3974C27.997 42.8613 28.1028 42.3305 28.3083 41.8354C28.5138 41.3403 28.815 40.8906 29.1946 40.512C29.5999 40.112 30.0533 39.808 30.5386 39.608V24.968C30.04 24.7639 29.5868 24.463 29.2052 24.0826C28.8236 23.7023 28.5211 23.2501 28.3153 22.7522C28.1095 22.2543 28.0044 21.7206 28.0061 21.1818C28.0078 20.643 28.1163 20.11 28.3253 19.6134L22.2986 13.5574L6.33325 29.5094C4.99992 30.8534 4.99992 33.0294 6.33325 34.3734L29.6159 57.6507C29.9345 57.9701 30.3129 58.2235 30.7295 58.3963C31.1462 58.5692 31.5928 58.6582 32.0439 58.6582C32.495 58.6582 32.9417 58.5692 33.3583 58.3963C33.7749 58.2235 34.1534 57.9701 34.4719 57.6507L57.6453 34.48C57.9662 34.1623 58.2211 33.7842 58.3953 33.3676C58.5695 32.951 58.6596 32.504 58.6604 32.0524C58.6611 31.6008 58.5725 31.1535 58.3997 30.7363C58.2268 30.319 57.9731 29.9401 57.6533 29.6214Z" fill="white"/>
</svg>
