<svg width="32" height="25" viewBox="0 0 32 25" fill="none" xmlns="http://www.w3.org/2000/svg">
<g clip-path="url(#clip0_34:251)">
<path d="M2.62042 7.67917L15.9538 16.0729C16.4018 16.3542 16.9813 16.4875 17.5644 16.4875C18.1475 16.4875 18.7271 16.3542 19.1751 16.0729L32.5084 7.67917C33.3778 7.13125 34.1991 5 32.6044 5H2.5262C0.931534 5 1.75287 7.13125 2.62042 7.67917ZM32.912 12.2687L19.1751 20.6583C18.5706 21.0292 18.1475 21.0729 17.5644 21.0729C16.9813 21.0729 16.5582 21.0292 15.9538 20.6583C15.3493 20.2875 3.27287 12.8687 2.2862 12.2667C1.59287 11.8417 1.59998 12.3396 1.59998 12.7229V27.9167C1.59998 28.7917 2.6062 30 3.37776 30H31.8222C32.5938 30 33.6 28.7917 33.6 27.9167V12.725C33.6 12.3417 33.6071 11.8437 32.912 12.2687Z" fill="white"/>
</g>
<defs>
<clipPath id="clip0_34:251">
<rect width="32" height="25" fill="white"/>
</clipPath>
</defs>
</svg>
