<svg width="64" height="64" viewBox="0 0 64 64" fill="none" xmlns="http://www.w3.org/2000/svg">
<path d="M64 31.1706C64 26.9306 58.6907 22.912 50.5493 20.4213C52.4293 12.1253 51.5947 5.52263 47.9147 3.40796C47.023 2.90855 46.0138 2.65716 44.992 2.67996V5.58663C45.592 5.58663 46.0747 5.70663 46.48 5.92796C48.2533 6.94663 49.024 10.8186 48.424 15.8026C48.28 17.0293 48.0453 18.32 47.7573 19.6373C45.031 18.9803 42.264 18.5055 39.4747 18.216C37.8129 15.9234 36 13.7443 34.048 11.6933C38.3013 7.74129 42.2933 5.57596 45.008 5.57596V2.66663C41.4187 2.66663 36.7227 5.22396 31.9733 9.65863C27.2267 5.25329 22.528 2.71996 18.9413 2.71996V5.62663C21.6427 5.62663 25.648 7.78129 29.9013 11.7066C28.0747 13.6266 26.248 15.8026 24.512 18.216C21.7169 18.5023 18.9449 18.9817 16.216 19.6506C15.9147 18.3466 15.6933 17.0826 15.536 15.8693C14.9227 10.8826 15.68 7.01063 17.4427 5.98129C17.832 5.74663 18.3413 5.63996 18.9413 5.63996V2.73329C17.848 2.73329 16.8533 2.96796 15.9947 3.46129C12.328 5.57596 11.5067 12.1626 13.3973 20.4346C5.28267 22.9413 0 26.944 0 31.1706C0 35.4106 5.30933 39.4293 13.4507 41.9173C11.5707 50.216 12.4053 56.8186 16.0853 58.9306C16.9333 59.4266 17.9253 59.6613 19.0187 59.6613C22.608 59.6613 27.304 57.104 32.0533 52.6693C36.8 57.0773 41.496 59.608 45.0853 59.608C46.1149 59.6297 47.1318 59.3775 48.032 58.8773C51.6987 56.7653 52.52 50.1786 50.6293 41.9066C58.7173 39.416 64 35.3973 64 31.1706ZM47.0133 22.4693C46.5066 24.2129 45.9193 25.9321 45.2533 27.6213C44.1631 25.5006 42.966 23.4367 41.6667 21.4373C43.52 21.712 45.3067 22.0506 47.016 22.4693H47.0133ZM41.04 36.3626C40.024 38.1226 38.9787 39.7946 37.896 41.3466C33.982 41.6916 30.0454 41.6961 26.1307 41.36C23.8852 38.1524 21.9214 34.7567 20.2613 31.2106C21.9189 27.6562 23.8743 24.2485 26.1067 21.024C30.0197 20.6783 33.9554 20.6729 37.8693 21.008C38.952 22.56 40.0107 24.2186 41.0267 25.968C42.0187 27.6746 42.92 29.408 43.7413 31.1573C42.9109 32.9278 42.0097 34.6643 41.04 36.3626ZM45.2533 34.6666C45.9573 36.4133 46.56 38.1626 47.0533 39.8586C45.3467 40.2773 43.544 40.6293 41.68 40.9013C42.974 38.8837 44.1666 36.8029 45.2533 34.6666ZM32.0267 48.5866C30.8133 47.3333 29.6 45.9386 28.4 44.4106C29.5733 44.464 30.7733 44.504 31.9867 44.504C33.2133 44.504 34.4267 44.4773 35.6133 44.4106C34.44 45.9386 33.2267 47.3333 32.0267 48.5866ZM22.32 40.9013C20.522 40.6408 18.737 40.2973 16.9707 39.872C17.4533 38.1893 18.0533 36.4533 18.7307 34.72C19.2667 35.76 19.8293 36.8053 20.4427 37.8506C21.056 38.8933 21.68 39.912 22.32 40.9013ZM31.96 13.7546C33.1733 15.008 34.3867 16.4026 35.5867 17.9306C34.4133 17.8773 33.2133 17.8373 32 17.8373C30.7733 17.8373 29.56 17.864 28.3733 17.9306C29.5467 16.4026 30.76 15.008 31.96 13.7546ZM22.3067 21.44C21.013 23.4531 19.8204 25.5295 18.7333 27.6613C18.0486 25.9612 17.4478 24.2284 16.9333 22.4693C18.64 22.064 20.4427 21.712 22.3067 21.44ZM10.5013 37.7706C5.88267 35.8026 2.896 33.2186 2.896 31.1706C2.896 29.1226 5.88267 26.5253 10.5013 24.5706C11.6213 24.088 12.848 23.656 14.1147 23.2533C14.8587 25.808 15.8373 28.4693 17.048 31.1973C15.905 33.7631 14.9383 36.4039 14.1547 39.1013C12.9159 38.7177 11.6966 38.2736 10.5013 37.7706ZM17.52 56.4106C15.7467 55.3973 14.976 51.52 15.576 46.5386C15.72 45.312 15.9547 44.0186 16.2427 42.7013C18.7973 43.328 21.5893 43.8106 24.5253 44.1253C26.1871 46.4178 28.0001 48.5969 29.952 50.648C25.6987 54.6 21.7067 56.7653 18.992 56.7653C18.4798 56.7709 17.9742 56.65 17.52 56.4133V56.4106ZM48.464 46.472C49.0773 51.456 48.32 55.3306 46.5573 56.36C46.168 56.5946 45.6587 56.6986 45.0587 56.6986C42.3573 56.6986 38.352 54.5466 34.0987 50.6186C35.9253 48.704 37.752 46.5253 39.488 44.112C42.2831 43.8256 45.0551 43.3463 47.784 42.6773C48.0853 43.9946 48.3173 45.2586 48.464 46.472ZM53.4853 37.7706C52.3653 38.2533 51.1387 38.6853 49.872 39.088C49.0746 36.3768 48.0946 33.7227 46.9387 31.144C48.1387 28.432 49.1013 25.784 49.832 23.24C51.1253 23.6426 52.3493 24.088 53.4987 24.5706C58.1173 26.5386 61.104 29.1226 61.104 31.1706C61.0907 33.2186 58.104 35.816 53.4853 37.7706Z" fill="white"/>
<path d="M31.9868 37.1333C33.5682 37.1333 35.0849 36.5051 36.2031 35.3869C37.3213 34.2687 37.9495 32.7521 37.9495 31.1707C37.9495 29.5893 37.3213 28.0726 36.2031 26.9544C35.0849 25.8362 33.5682 25.208 31.9868 25.208C30.4054 25.208 28.8888 25.8362 27.7706 26.9544C26.6524 28.0726 26.0242 29.5893 26.0242 31.1707C26.0242 32.7521 26.6524 34.2687 27.7706 35.3869C28.8888 36.5051 30.4054 37.1333 31.9868 37.1333Z" fill="white"/>
</svg>
